<mxfile host="app.diagrams.net" modified="2023-03-21T06:08:17.317Z" agent="5.0 (Windows NT 10.0; Win64; x64) AppleWebKit/537.36 (KHTML, like Gecko) Chrome/111.0.0.0 Safari/537.36" etag="jGXBBCUjzSstKKZhIx_c" version="21.0.8" type="github">
  <diagram name="페이지-1" id="d0pRdjLYbsfJ0Tyh1wIi">
    <mxGraphModel dx="1550" dy="1310" grid="0" gridSize="10" guides="1" tooltips="1" connect="1" arrows="1" fold="1" page="1" pageScale="1" pageWidth="1600" pageHeight="900" math="0" shadow="0">
      <root>
        <mxCell id="0" />
        <mxCell id="1" parent="0" />
        <mxCell id="4b_-TM8n86hELfN2SA0_-1" value="" style="swimlane;startSize=658;fillColor=#e6e6e6;fontColor=#333333;strokeColor=#666666;opacity=70;" vertex="1" parent="1">
          <mxGeometry x="182" y="135" width="1329.75" height="658" as="geometry">
            <mxRectangle x="182" y="135" width="50" height="44" as="alternateBounds" />
          </mxGeometry>
        </mxCell>
        <mxCell id="4b_-TM8n86hELfN2SA0_-2" value="" style="rounded=0;whiteSpace=wrap;html=1;fillColor=none;dashed=1;dashPattern=8 8;strokeColor=#3671c4;opacity=80;strokeWidth=1.5;" vertex="1" parent="4b_-TM8n86hELfN2SA0_-1">
          <mxGeometry x="535" y="42" width="724" height="571" as="geometry" />
        </mxCell>
        <mxCell id="4b_-TM8n86hELfN2SA0_-5" value="" style="rounded=0;whiteSpace=wrap;html=1;strokeColor=none;fillColor=#ffffff;shadow=1;" vertex="1" parent="4b_-TM8n86hELfN2SA0_-1">
          <mxGeometry x="581" y="354" width="335" height="214" as="geometry" />
        </mxCell>
        <mxCell id="4b_-TM8n86hELfN2SA0_-37" value="" style="rounded=0;whiteSpace=wrap;html=1;strokeColor=none;fillColor=#ffffff;shadow=1;" vertex="1" parent="4b_-TM8n86hELfN2SA0_-1">
          <mxGeometry x="583" y="92" width="335" height="214" as="geometry" />
        </mxCell>
        <mxCell id="4b_-TM8n86hELfN2SA0_-4" value="" style="rounded=0;whiteSpace=wrap;html=1;rotation=90;strokeColor=none;fillColor=#ffffff;shadow=1;" vertex="1" parent="4b_-TM8n86hELfN2SA0_-1">
          <mxGeometry x="843.75" y="203.25" width="486" height="252" as="geometry" />
        </mxCell>
        <mxCell id="4b_-TM8n86hELfN2SA0_-6" value="&lt;font style=&quot;font-size: 14px;&quot;&gt;Web_sub_1&lt;/font&gt;" style="text;html=1;strokeColor=none;fillColor=none;align=center;verticalAlign=middle;whiteSpace=wrap;rounded=0;" vertex="1" parent="4b_-TM8n86hELfN2SA0_-1">
          <mxGeometry x="581" y="93.5" width="89.75" height="30" as="geometry" />
        </mxCell>
        <mxCell id="4b_-TM8n86hELfN2SA0_-7" value="&lt;font style=&quot;font-size: 14px;&quot;&gt;Web_sub_2&lt;/font&gt;" style="text;html=1;strokeColor=none;fillColor=none;align=center;verticalAlign=middle;whiteSpace=wrap;rounded=0;" vertex="1" parent="4b_-TM8n86hELfN2SA0_-1">
          <mxGeometry x="581" y="356.75" width="89.75" height="30" as="geometry" />
        </mxCell>
        <mxCell id="4b_-TM8n86hELfN2SA0_-8" value="&lt;font style=&quot;font-size: 14px;&quot;&gt;DB_sub_1&lt;/font&gt;" style="text;html=1;strokeColor=none;fillColor=none;align=center;verticalAlign=middle;whiteSpace=wrap;rounded=0;" vertex="1" parent="4b_-TM8n86hELfN2SA0_-1">
          <mxGeometry x="963" y="93.5" width="89.75" height="30" as="geometry" />
        </mxCell>
        <mxCell id="4b_-TM8n86hELfN2SA0_-9" value="" style="rounded=0;whiteSpace=wrap;html=1;fillColor=#fff2cc;strokeColor=none;shadow=1;" vertex="1" parent="4b_-TM8n86hELfN2SA0_-1">
          <mxGeometry x="1019" y="217" width="148" height="208" as="geometry" />
        </mxCell>
        <mxCell id="4b_-TM8n86hELfN2SA0_-11" value="" style="image;aspect=fixed;html=1;points=[];align=center;fontSize=12;image=img/lib/azure2/networking/Network_Security_Groups.svg;" vertex="1" parent="4b_-TM8n86hELfN2SA0_-1">
          <mxGeometry x="1142" y="204" width="37.06" height="45" as="geometry" />
        </mxCell>
        <mxCell id="4b_-TM8n86hELfN2SA0_-12" value="" style="image;aspect=fixed;html=1;points=[];align=center;fontSize=12;image=img/lib/azure2/networking/NAT.svg;" vertex="1" parent="4b_-TM8n86hELfN2SA0_-1">
          <mxGeometry x="561" y="443.5" width="47" height="47" as="geometry" />
        </mxCell>
        <mxCell id="4b_-TM8n86hELfN2SA0_-14" value="&lt;font style=&quot;font-size: 14px;&quot;&gt;NAT&lt;/font&gt;" style="text;html=1;strokeColor=none;fillColor=none;align=center;verticalAlign=middle;whiteSpace=wrap;rounded=0;" vertex="1" parent="4b_-TM8n86hELfN2SA0_-1">
          <mxGeometry x="538" y="234" width="89.75" height="30" as="geometry" />
        </mxCell>
        <mxCell id="4b_-TM8n86hELfN2SA0_-15" value="&lt;font style=&quot;font-size: 14px;&quot;&gt;NAT&lt;/font&gt;" style="text;html=1;strokeColor=none;fillColor=none;align=center;verticalAlign=middle;whiteSpace=wrap;rounded=0;" vertex="1" parent="4b_-TM8n86hELfN2SA0_-1">
          <mxGeometry x="536" y="487" width="89.75" height="30" as="geometry" />
        </mxCell>
        <mxCell id="4b_-TM8n86hELfN2SA0_-72" style="edgeStyle=orthogonalEdgeStyle;rounded=0;orthogonalLoop=1;jettySize=auto;html=1;" edge="1" parent="4b_-TM8n86hELfN2SA0_-1" source="4b_-TM8n86hELfN2SA0_-22" target="4b_-TM8n86hELfN2SA0_-9">
          <mxGeometry relative="1" as="geometry" />
        </mxCell>
        <mxCell id="4b_-TM8n86hELfN2SA0_-22" value="" style="rounded=0;whiteSpace=wrap;html=1;fillColor=#dae8fc;strokeColor=none;opacity=90;shadow=1;" vertex="1" parent="4b_-TM8n86hELfN2SA0_-1">
          <mxGeometry x="655.0600000000001" y="149" width="190.88" height="123" as="geometry" />
        </mxCell>
        <mxCell id="4b_-TM8n86hELfN2SA0_-25" value="" style="image;aspect=fixed;html=1;points=[];align=center;fontSize=12;image=img/lib/azure2/security/Application_Security_Groups.svg;" vertex="1" parent="4b_-TM8n86hELfN2SA0_-1">
          <mxGeometry x="827" y="127" width="36.64" height="44.5" as="geometry" />
        </mxCell>
        <mxCell id="4b_-TM8n86hELfN2SA0_-32" value="&lt;font style=&quot;font-size: 14px;&quot;&gt;Virtual Network&lt;/font&gt;" style="text;html=1;strokeColor=none;fillColor=none;align=center;verticalAlign=middle;whiteSpace=wrap;rounded=0;" vertex="1" parent="4b_-TM8n86hELfN2SA0_-1">
          <mxGeometry x="547" y="60" width="98" height="30" as="geometry" />
        </mxCell>
        <mxCell id="4b_-TM8n86hELfN2SA0_-33" value="" style="sketch=0;outlineConnect=0;fontColor=#232F3E;gradientColor=none;fillColor=#232F3D;strokeColor=none;dashed=0;verticalLabelPosition=bottom;verticalAlign=top;align=center;html=1;fontSize=12;fontStyle=0;aspect=fixed;pointerEvents=1;shape=mxgraph.aws4.user;" vertex="1" parent="4b_-TM8n86hELfN2SA0_-1">
          <mxGeometry x="83.14" y="125" width="52" height="52" as="geometry" />
        </mxCell>
        <mxCell id="4b_-TM8n86hELfN2SA0_-73" style="edgeStyle=orthogonalEdgeStyle;rounded=0;orthogonalLoop=1;jettySize=auto;html=1;entryX=0;entryY=0.5;entryDx=0;entryDy=0;" edge="1" parent="4b_-TM8n86hELfN2SA0_-1" source="4b_-TM8n86hELfN2SA0_-39" target="4b_-TM8n86hELfN2SA0_-9">
          <mxGeometry relative="1" as="geometry" />
        </mxCell>
        <mxCell id="4b_-TM8n86hELfN2SA0_-39" value="" style="rounded=0;whiteSpace=wrap;html=1;fillColor=#dae8fc;strokeColor=none;opacity=90;shadow=1;" vertex="1" parent="4b_-TM8n86hELfN2SA0_-1">
          <mxGeometry x="653.87" y="404" width="190.88" height="123" as="geometry" />
        </mxCell>
        <mxCell id="4b_-TM8n86hELfN2SA0_-40" value="" style="image;aspect=fixed;html=1;points=[];align=center;fontSize=12;image=img/lib/azure2/security/Application_Security_Groups.svg;" vertex="1" parent="4b_-TM8n86hELfN2SA0_-1">
          <mxGeometry x="821" y="381.5" width="36.64" height="44.5" as="geometry" />
        </mxCell>
        <mxCell id="4b_-TM8n86hELfN2SA0_-41" value="" style="verticalLabelPosition=bottom;html=1;verticalAlign=top;align=center;strokeColor=none;fillColor=#007ecc;shape=mxgraph.azure.virtual_machine;" vertex="1" parent="4b_-TM8n86hELfN2SA0_-1">
          <mxGeometry x="719.25" y="185.5" width="62.5" height="50" as="geometry" />
        </mxCell>
        <mxCell id="4b_-TM8n86hELfN2SA0_-42" value="" style="verticalLabelPosition=bottom;html=1;verticalAlign=top;align=center;strokeColor=none;fillColor=#007ecc;shape=mxgraph.azure.virtual_machine;" vertex="1" parent="4b_-TM8n86hELfN2SA0_-1">
          <mxGeometry x="717.25" y="440.5" width="62.5" height="50" as="geometry" />
        </mxCell>
        <mxCell id="4b_-TM8n86hELfN2SA0_-43" value="&lt;font style=&quot;font-size: 14px;&quot;&gt;web_vm_us&lt;/font&gt;" style="text;html=1;strokeColor=none;fillColor=none;align=center;verticalAlign=middle;whiteSpace=wrap;rounded=0;" vertex="1" parent="4b_-TM8n86hELfN2SA0_-1">
          <mxGeometry x="705.6300000000001" y="234" width="89.75" height="30" as="geometry" />
        </mxCell>
        <mxCell id="4b_-TM8n86hELfN2SA0_-44" value="&lt;font style=&quot;font-size: 14px;&quot;&gt;web_vm_kr&lt;/font&gt;" style="text;html=1;strokeColor=none;fillColor=none;align=center;verticalAlign=middle;whiteSpace=wrap;rounded=0;" vertex="1" parent="4b_-TM8n86hELfN2SA0_-1">
          <mxGeometry x="702.0000000000001" y="487" width="89.75" height="30" as="geometry" />
        </mxCell>
        <mxCell id="4b_-TM8n86hELfN2SA0_-45" value="" style="image;aspect=fixed;html=1;points=[];align=center;fontSize=12;image=img/lib/azure2/networking/NAT.svg;imageBackground=default;" vertex="1" parent="4b_-TM8n86hELfN2SA0_-1">
          <mxGeometry x="561" y="187" width="47" height="47" as="geometry" />
        </mxCell>
        <mxCell id="4b_-TM8n86hELfN2SA0_-46" value="" style="verticalLabelPosition=bottom;html=1;verticalAlign=top;align=center;strokeColor=none;fillColor=#007ecc;shape=mxgraph.azure.sql_database;" vertex="1" parent="4b_-TM8n86hELfN2SA0_-1">
          <mxGeometry x="1065" y="278" width="58.5" height="78" as="geometry" />
        </mxCell>
        <mxCell id="4b_-TM8n86hELfN2SA0_-47" value="" style="verticalLabelPosition=bottom;html=1;verticalAlign=top;align=center;strokeColor=none;fillColor=#2075b8;shape=mxgraph.azure.virtual_network;pointerEvents=1;" vertex="1" parent="4b_-TM8n86hELfN2SA0_-1">
          <mxGeometry x="561" y="27" width="56.36" height="31" as="geometry" />
        </mxCell>
        <mxCell id="4b_-TM8n86hELfN2SA0_-69" style="edgeStyle=orthogonalEdgeStyle;rounded=0;orthogonalLoop=1;jettySize=auto;html=1;" edge="1" parent="4b_-TM8n86hELfN2SA0_-1" source="4b_-TM8n86hELfN2SA0_-50">
          <mxGeometry relative="1" as="geometry">
            <mxPoint x="386.14285714285734" y="323.5" as="targetPoint" />
          </mxGeometry>
        </mxCell>
        <mxCell id="4b_-TM8n86hELfN2SA0_-50" value="" style="verticalLabelPosition=bottom;html=1;verticalAlign=top;align=center;strokeColor=none;fillColor=#007ecc;shape=mxgraph.azure.traffic_manager;pointerEvents=1;" vertex="1" parent="4b_-TM8n86hELfN2SA0_-1">
          <mxGeometry x="249" y="295" width="57" height="57" as="geometry" />
        </mxCell>
        <mxCell id="4b_-TM8n86hELfN2SA0_-66" style="edgeStyle=orthogonalEdgeStyle;rounded=0;orthogonalLoop=1;jettySize=auto;html=1;" edge="1" parent="4b_-TM8n86hELfN2SA0_-1" source="4b_-TM8n86hELfN2SA0_-52">
          <mxGeometry relative="1" as="geometry">
            <mxPoint x="109.1400000000001" y="376.28571428571445" as="targetPoint" />
          </mxGeometry>
        </mxCell>
        <mxCell id="4b_-TM8n86hELfN2SA0_-52" value="" style="sketch=0;outlineConnect=0;fontColor=#232F3E;gradientColor=none;fillColor=#232F3D;strokeColor=none;dashed=0;verticalLabelPosition=bottom;verticalAlign=top;align=center;html=1;fontSize=12;fontStyle=0;aspect=fixed;pointerEvents=1;shape=mxgraph.aws4.user;" vertex="1" parent="4b_-TM8n86hELfN2SA0_-1">
          <mxGeometry x="83.14" y="455.25" width="52" height="52" as="geometry" />
        </mxCell>
        <mxCell id="4b_-TM8n86hELfN2SA0_-67" style="edgeStyle=orthogonalEdgeStyle;rounded=0;orthogonalLoop=1;jettySize=auto;html=1;exitX=0.91;exitY=0.5;exitDx=0;exitDy=0;exitPerimeter=0;" edge="1" parent="4b_-TM8n86hELfN2SA0_-1" source="4b_-TM8n86hELfN2SA0_-55">
          <mxGeometry relative="1" as="geometry">
            <mxPoint x="239" y="324.8571428571429" as="targetPoint" />
          </mxGeometry>
        </mxCell>
        <mxCell id="4b_-TM8n86hELfN2SA0_-55" value="" style="sketch=0;aspect=fixed;pointerEvents=1;shadow=0;dashed=0;html=1;strokeColor=none;labelPosition=center;verticalLabelPosition=bottom;verticalAlign=top;align=center;fillColor=#007ecc;shape=mxgraph.mscae.enterprise.internet" vertex="1" parent="4b_-TM8n86hELfN2SA0_-1">
          <mxGeometry x="75.14" y="305.75" width="63.71" height="39.5" as="geometry" />
        </mxCell>
        <mxCell id="4b_-TM8n86hELfN2SA0_-56" value="&lt;span style=&quot;font-size: 14px;&quot;&gt;Internet&lt;/span&gt;" style="text;html=1;strokeColor=none;fillColor=none;align=center;verticalAlign=middle;whiteSpace=wrap;rounded=0;" vertex="1" parent="4b_-TM8n86hELfN2SA0_-1">
          <mxGeometry x="64" y="342" width="89.75" height="30" as="geometry" />
        </mxCell>
        <mxCell id="4b_-TM8n86hELfN2SA0_-58" value="&lt;span style=&quot;font-size: 14px;&quot;&gt;Traffic Manager&lt;/span&gt;" style="text;html=1;strokeColor=none;fillColor=none;align=center;verticalAlign=middle;whiteSpace=wrap;rounded=0;" vertex="1" parent="4b_-TM8n86hELfN2SA0_-1">
          <mxGeometry x="223.63" y="348.5" width="107.37" height="30" as="geometry" />
        </mxCell>
        <mxCell id="4b_-TM8n86hELfN2SA0_-57" value="&lt;span style=&quot;font-size: 14px;&quot;&gt;Load Balancer&lt;/span&gt;" style="text;html=1;strokeColor=none;fillColor=none;align=center;verticalAlign=middle;whiteSpace=wrap;rounded=0;" vertex="1" parent="4b_-TM8n86hELfN2SA0_-1">
          <mxGeometry x="369" y="345" width="113.75" height="30" as="geometry" />
        </mxCell>
        <mxCell id="4b_-TM8n86hELfN2SA0_-64" style="edgeStyle=orthogonalEdgeStyle;rounded=0;orthogonalLoop=1;jettySize=auto;html=1;" edge="1" parent="4b_-TM8n86hELfN2SA0_-1" source="4b_-TM8n86hELfN2SA0_-59">
          <mxGeometry relative="1" as="geometry">
            <mxPoint x="110.75" y="290.57142857142867" as="targetPoint" />
          </mxGeometry>
        </mxCell>
        <mxCell id="4b_-TM8n86hELfN2SA0_-59" value="&lt;font style=&quot;font-size: 14px;&quot;&gt;Korean User&lt;/font&gt;" style="text;html=1;strokeColor=none;fillColor=none;align=center;verticalAlign=middle;whiteSpace=wrap;rounded=0;" vertex="1" parent="4b_-TM8n86hELfN2SA0_-1">
          <mxGeometry x="61.75" y="173.25" width="98" height="30" as="geometry" />
        </mxCell>
        <mxCell id="4b_-TM8n86hELfN2SA0_-60" value="&lt;font style=&quot;font-size: 14px;&quot;&gt;US User&lt;/font&gt;" style="text;html=1;strokeColor=none;fillColor=none;align=center;verticalAlign=middle;whiteSpace=wrap;rounded=0;" vertex="1" parent="4b_-TM8n86hELfN2SA0_-1">
          <mxGeometry x="61.139999999999986" y="507.25" width="98" height="30" as="geometry" />
        </mxCell>
        <mxCell id="4b_-TM8n86hELfN2SA0_-70" style="edgeStyle=orthogonalEdgeStyle;rounded=0;orthogonalLoop=1;jettySize=auto;html=1;entryX=-0.012;entryY=0.562;entryDx=0;entryDy=0;entryPerimeter=0;" edge="1" parent="1" source="4b_-TM8n86hELfN2SA0_-51" target="4b_-TM8n86hELfN2SA0_-45">
          <mxGeometry relative="1" as="geometry" />
        </mxCell>
        <mxCell id="4b_-TM8n86hELfN2SA0_-71" style="edgeStyle=orthogonalEdgeStyle;rounded=0;orthogonalLoop=1;jettySize=auto;html=1;entryX=0.018;entryY=0.546;entryDx=0;entryDy=0;entryPerimeter=0;" edge="1" parent="1" source="4b_-TM8n86hELfN2SA0_-51" target="4b_-TM8n86hELfN2SA0_-12">
          <mxGeometry relative="1" as="geometry" />
        </mxCell>
        <mxCell id="4b_-TM8n86hELfN2SA0_-51" value="" style="verticalLabelPosition=bottom;html=1;verticalAlign=top;align=center;strokeColor=none;fillColor=#007ecc;shape=mxgraph.azure.azure_load_balancer;" vertex="1" parent="1">
          <mxGeometry x="571" y="431.5" width="70" height="49" as="geometry" />
        </mxCell>
        <mxCell id="4b_-TM8n86hELfN2SA0_-74" value="" style="shape=image;verticalLabelPosition=bottom;labelBackgroundColor=#ffffff;verticalAlign=top;aspect=fixed;imageAspect=0;image=data:image/svg+xml,PHN2ZyB4bWxuczpkYz0iaHR0cDovL3B1cmwub3JnL2RjL2VsZW1lbnRzLzEuMS8iIHhtbG5zOmNjPSJodHRwOi8vY3JlYXRpdmVjb21tb25zLm9yZy9ucyMiIHhtbG5zOnJkZj0iaHR0cDovL3d3dy53My5vcmcvMTk5OS8wMi8yMi1yZGYtc3ludGF4LW5zIyIgeG1sbnM6c3ZnPSJodHRwOi8vd3d3LnczLm9yZy8yMDAwL3N2ZyIgeG1sbnM9Imh0dHA6Ly93d3cudzMub3JnLzIwMDAvc3ZnIiB4bWxuczpzb2RpcG9kaT0iaHR0cDovL3NvZGlwb2RpLnNvdXJjZWZvcmdlLm5ldC9EVEQvc29kaXBvZGktMC5kdGQiIHhtbG5zOmlua3NjYXBlPSJodHRwOi8vd3d3Lmlua3NjYXBlLm9yZy9uYW1lc3BhY2VzL2lua3NjYXBlIiB2ZXJzaW9uPSIxLjEiIGlkPSJzdmc1MDMyOSIgaW5rc2NhcGU6dmVyc2lvbj0iMC45Mi4zICgyNDA1NTQ2LCAyMDE4LTAzLTExKSIgc29kaXBvZGk6ZG9jbmFtZT0iYXp1cmUuc3ZnIiB4PSIwcHgiIHk9IjBweCIgdmlld0JveD0iMCAwIDYyLjc2IDQ4LjQ4IiBzdHlsZT0iZW5hYmxlLWJhY2tncm91bmQ6bmV3IDAgMCA2Mi43NiA0OC40ODsiIHhtbDpzcGFjZT0icHJlc2VydmUiPjxtZXRhZGF0YSBpZD0ibWV0YWRhdGExNjgwNyI+PHJkZjpSREY+PGNjOldvcmsgcmRmOmFib3V0PSIiPjxkYzpmb3JtYXQ+aW1hZ2Uvc3ZnK3htbDwvZGM6Zm9ybWF0PjxkYzp0eXBlIHJkZjpyZXNvdXJjZT0iaHR0cDovL3B1cmwub3JnL2RjL2RjbWl0eXBlL1N0aWxsSW1hZ2UiLz48ZGM6dGl0bGUvPjwvY2M6V29yaz48L3JkZjpSREY+PC9tZXRhZGF0YT48ZGVmcyBpZD0iZGVmczE2ODA1Ii8+JiN4YTs8c29kaXBvZGk6bmFtZWR2aWV3IGJvcmRlcmNvbG9yPSIjNjY2NjY2IiBib3JkZXJvcGFjaXR5PSIxIiBmaXQtbWFyZ2luLWJvdHRvbT0iMCIgZml0LW1hcmdpbi1sZWZ0PSIwIiBmaXQtbWFyZ2luLXJpZ2h0PSIwIiBmaXQtbWFyZ2luLXRvcD0iMCIgZ3JpZHRvbGVyYW5jZT0iMTAiIGd1aWRldG9sZXJhbmNlPSIxMCIgaWQ9Im5hbWVkdmlldzUwMzMxIiBpbmtzY2FwZTpjdXJyZW50LWxheWVyPSJzdmc1MDMyOSIgaW5rc2NhcGU6Y3g9IjQ5LjM2MTQ4NiIgaW5rc2NhcGU6Y3k9IjEyLjA3MjQ5NyIgaW5rc2NhcGU6cGFnZW9wYWNpdHk9IjAiIGlua3NjYXBlOnBhZ2VzaGFkb3c9IjIiIGlua3NjYXBlOndpbmRvdy1oZWlnaHQ9IjEwMTciIGlua3NjYXBlOndpbmRvdy1tYXhpbWl6ZWQ9IjEiIGlua3NjYXBlOndpbmRvdy13aWR0aD0iMTkyMCIgaW5rc2NhcGU6d2luZG93LXg9Ii04IiBpbmtzY2FwZTp3aW5kb3cteT0iLTgiIGlua3NjYXBlOnpvb209IjUuOTY3MzU3NyIgb2JqZWN0dG9sZXJhbmNlPSIxMCIgcGFnZWNvbG9yPSIjZmZmZmZmIiBzaG93Z3JpZD0iZmFsc2UiPiYjeGE7CTwvc29kaXBvZGk6bmFtZWR2aWV3PiYjeGE7JiN4YTs8cGF0aCBpZD0icGF0aDUwMzI0IiBpbmtzY2FwZTpjb25uZWN0b3ItY3VydmF0dXJlPSIwIiBzdHlsZT0iZmlsbDojMjA3NUI4OyIgZD0iTTE1LjY4LDQ4LjM2YzAuMDctMC4wNyw2LjQtMS4yMywxNC4wNi0yLjU3ICBjNy42NS0xLjM1LDEzLjk3LTIuNSwxNC4wMy0yLjU2YzAuMTItMC4xMS0wLjc1LTEuMTctMTAuMjItMTIuNDZjLTIuNTItMi45OS00LjYzLTUuNTYtNC43LTUuN2MtMC4wOS0wLjE5LDAuODktMy4wNCwzLjczLTEwLjgzICBjMi4xMS01LjgxLDMuODctMTAuNjUsMy45MS0xMC43NWMwLjAzLTAuMDksMC4xMy0wLjE3LDAuMjItMC4xN2MwLjE5LDAsMjYuMTQsNDQuOTEsMjYuMDUsNDUuMDZjLTAuMDQsMC4wNi0xMC42OCwwLjEtMjMuNjQsMC4xICBDMjUuMjEsNDguNDgsMTUuNiw0OC40MywxNS42OCw0OC4zNnogTTAsNDMuMDFjLTAuMDUtMC4xMywwLjU0LTEuMjksMS40NS0yLjg4YzAuODQtMS40Niw0LjQyLTcuNjYsNy45NS0xMy43N2w2LjQxLTExLjFsOS4wOC03LjYzICBDMjkuODgsMy40NCwzNC4wNCwwLDM0LjEzLDBjMC4xLDAsMC4xMywwLjA5LDAuMDgsMC4yNEMzMy43NCwxLjQ4LDE0LjMsNDIuOTIsMTQuMTMsNDMuMDVjLTAuMTksMC4xMy0xLjg0LDAuMTctNy4xNSwwLjE3ICBDMC45MSw0My4yMiwwLjA3LDQzLjE5LDAsNDMuMDF6Ii8+JiN4YTs8L3N2Zz4=;" vertex="1" parent="1">
          <mxGeometry x="141" y="41" width="63" height="48" as="geometry" />
        </mxCell>
      </root>
    </mxGraphModel>
  </diagram>
</mxfile>
